<svg xmlns="http://www.w3.org/2000/svg" xmlns:xlink="http://www.w3.org/1999/xlink" width="115" height="24" version="1"><g transform="translate(-12 -11)"><path d="M14 33V14l19 19V14" id="a" fill="none" stroke="#090" stroke-width="5" stroke-linecap="round" stroke-linejoin="round"/><path style="text-indent:0;text-align:start;line-height:normal;text-transform:none;block-progression:tb;-inkscape-font-specification:Sans" d="M45 11l-1 1-5 10-1 1 1 2 5 9 1 1h14v-1l4-8 2-4H51c-1 0-3 1-3 3l3 2h6l-2 3h-7l-4-7 4-7h8l2 4h5l-3-7-1-2H46zm25 0c-1 0-2 1-2 3v6h5v-6c0-2-2-3-3-3z" font-weight="400" color="#000" fill="#090" overflow="visible" font-family="Sans"/><use xlink:href="#a" transform="matrix(-1 0 0 1 111 0)" width="744" height="1052"/><path id="b" d="M105 13l19 19" fill="none" stroke="#090" stroke-width="5" stroke-linecap="round" stroke-linejoin="round"/><use height="1052" width="744" transform="matrix(-1 0 0 1 229 0)" xlink:href="#b"/><path style="text-indent:0;text-align:start;line-height:normal;text-transform:none;block-progression:tb;-inkscape-font-specification:Sans" d="M70 35l-2-2V22h5v11l-3 2z" font-weight="400" color="#000" fill="#090" overflow="visible" font-family="Sans"/></g></svg>